<svg xmlns="http://www.w3.org/2000/svg" width="1100" height="680" viewBox="0 0 1100 680"><defs><linearGradient id="shell"><stop stop-color="#b4e0d1"/><stop offset="1" stop-color="#d9e5ee"/></linearGradient></defs><style>text{font-family:system-ui,sans-serif;font-size:19px;fill:#203444}.small{font-size:15px;fill:#526778}.heading{font-size:22px;font-weight:650}</style><rect width="1100" height="680" fill="#fff"/><text x="32" y="44" class="heading">Rejected anatomy · reconstructed</text><rect x="32" y="82" width="1036" height="42" fill="#484d55"/><text x="52" y="109" fill="#c5cdd5">Home　 Edit　 View　 Help</text><rect x="52" y="132" width="996" height="110" rx="18" fill="#d9dde1"/><rect x="42" y="122" width="996" height="100" rx="16" fill="white" stroke="#b9c6cf"/><text x="68" y="162">▣ Open　　 Save　 │　 Undo　 Search</text><text x="120" y="198" class="small">FILE　　　　　　 EDIT</text><text x="930" y="162" fill="#236bdb">M-x</text><text x="50" y="274" class="small">Panel floats over the first lines; sparse controls and large elevation dominate.</text><rect x="32" y="374" width="1036" height="46" fill="url(#shell)"/><text x="52" y="403">Home　　 Edit　　 View　　 Help</text><path d="M50 416H105" stroke="#2166b5" stroke-width="3"/><rect x="32" y="420" width="1036" height="104" fill="#f9fbfc" stroke="#ced9e1"/><text x="52" y="457">Open　 Save</text><text x="258" y="457">Undo　 Redo</text><text x="473" y="457">Find　 Replace</text><text x="770" y="457">Search commands…</text><path d="M228 438V508M444 438V508M738 438V508" stroke="#c4d0d9"/><text x="52" y="503" class="small">File</text><text x="258" y="503" class="small">History</text><text x="473" y="503" class="small">Search</text><text x="50" y="565">Document begins here, visible and ready for typing.</text><text x="32" y="344" class="heading">Proposed · integrated, grouped, restrained</text><text x="32" y="666" class="small">Design study · invented data · proposed composition, not a production screenshot</text></svg>
